<svg xmlns="http://www.w3.org/2000/svg" viewBox="0 0 511.999 511.999" xml:space="preserve"><path d="M453.423 232.709c0-15.676-12.826-28.501-28.501-28.501H87.078c-15.676 0-28.501 12.826-28.501 28.501v242.662c0 15.675 12.826 28.501 28.501 28.501h337.843c15.675 0 28.501-12.826 28.501-28.501V232.709z" fill="#ff9e16"/><path d="M58.577 451.689v23.683c0 15.675 12.826 28.501 28.501 28.501h337.843c15.675 0 28.501-12.826 28.501-28.501v-23.683z" fill="#0071ce"/><path d="M283.517 341.798c13.997-9.044 23.27-24.773 23.27-42.677 0-28.049-22.739-50.788-50.788-50.788s-50.788 22.739-50.788 50.788c0 17.904 9.273 33.634 23.271 42.677l-8.726 59.667c-.784 5.362 3.008 9.749 8.427 9.749h55.633c5.42 0 9.212-4.387 8.427-9.749z" fill="#0055b8"/><path d="M380.839 204.208h-51.303v-71.24c0-40.549-32.988-73.536-73.536-73.536s-73.537 32.988-73.537 73.536v71.24H131.16v-71.24c0-68.837 56.004-124.84 124.84-124.84s124.839 56.003 124.839 124.839z" fill="#333e48"/><path d="M424.921 196.08h-35.954v-63.112C388.967 59.65 329.318 0 256 0S123.032 59.65 123.032 132.967v63.112H87.078c-20.197 0-36.629 16.431-36.629 36.629V475.37c0 20.197 16.431 36.629 36.629 36.629h337.843c20.197 0 36.629-16.431 36.629-36.629V232.709c.001-20.197-16.432-36.629-36.629-36.629m-285.633-63.113c0-64.354 52.357-116.711 116.712-116.711s116.711 52.357 116.711 116.711v63.112h-35.047v-63.112c0-45.03-36.634-81.664-81.664-81.664s-81.665 36.634-81.665 81.664v63.112h-35.047zm182.12 0v63.112H190.59v-63.112c0-36.066 29.342-65.408 65.41-65.408s65.408 29.342 65.408 65.408m123.887 342.404c0 11.234-9.139 20.373-20.373 20.373H87.078c-11.234 0-20.373-9.139-20.373-20.373V232.709c0-11.234 9.139-20.373 20.373-20.373h337.843c11.234 0 20.373 9.139 20.373 20.373v242.662zm-130.379-176.25c0-32.487-26.43-58.916-58.916-58.916-32.487 0-58.916 26.43-58.916 58.916 0 18.291 8.373 35.278 22.638 46.412l-8.009 54.758c-.715 4.893.663 9.769 3.781 13.376s7.743 5.676 12.688 5.676h55.633c4.946 0 9.572-2.069 12.689-5.677s4.496-8.483 3.78-13.376l-8.008-54.756c14.267-11.134 22.64-28.121 22.64-46.413m-35.81 35.851a8.13 8.13 0 0 0-3.632 8.003l8.726 59.667c.036.245.007.367.014.381-.034.016-.152.063-.399.063h-55.633c-.234 0-.352-.042-.377-.042h-.003c-.012-.036-.041-.158-.005-.403l8.726-59.667a8.13 8.13 0 0 0-3.632-8.003c-12.244-7.911-19.554-21.314-19.554-35.851 0-23.523 19.138-42.66 42.66-42.66s42.66 19.138 42.66 42.66c.003 14.539-7.307 27.941-19.551 35.852" fill="#1e252b"/></svg>