<svg xmlns="http://www.w3.org/2000/svg" viewBox="0 0 511.98 511.98" xml:space="preserve"><g stroke-width="0"/><g stroke-linecap="round" stroke-linejoin="round"/><path d="M95.996 463.985H31.999c-5.891 0-10.664-4.781-10.664-10.671v-31.999c0-5.891 4.773-10.672 10.664-10.672h63.997c5.891 0 10.671 4.781 10.671 10.672v31.999c0 5.89-4.781 10.671-10.671 10.671m383.985 0h-63.998c-5.89 0-10.655-4.781-10.655-10.671v-31.999c0-5.891 4.766-10.672 10.655-10.672h63.998c5.905 0 10.671 4.781 10.671 10.672v31.999c0 5.89-4.766 10.671-10.671 10.671" fill="#434a54"/><path d="M501.324 69.33H10.671C4.781 69.33 0 74.095 0 80.001v341.314c0 5.891 4.781 10.672 10.671 10.672h490.653c5.875 0 10.656-4.781 10.656-10.672V80.001c0-5.906-4.781-10.671-10.656-10.671" fill="#656d78"/><path d="M266.661 101.328H42.67a10.665 10.665 0 0 0-10.671 10.671v277.317c0 5.891 4.781 10.672 10.671 10.672h223.991c5.891 0 10.672-4.781 10.672-10.672V111.999c0-5.906-4.781-10.671-10.672-10.671" fill="#434a54"/><path d="M149.338 314.648c-5.89 0-10.664 4.781-10.664 10.672 0 5.89 4.773 10.671 10.664 10.671s10.672-4.781 10.672-10.671c0-5.891-4.782-10.672-10.672-10.672m.023-149.323c-16.718 0-29.991 5.062-39.452 15.062-13.734 14.483-13.992 34.342-13.906 38.201 0 .016-.008.047-.008.062 0 .078.016.156.016.234.008.172.008.297.016.344.305 5.625 4.945 10.094 10.64 10.094 5.891 0 10.664-4.781 10.664-10.672 0-.172-.016-.344-.023-.5l.023-.016c-.008-.141-.484-14.171 8.164-23.186 5.281-5.5 13.304-8.296 23.866-8.296 12.671 0 21.218 3.093 26.116 9.437 3.875 5.015 5.844 12.609 5.859 22.577.016 7.156-6.125 16.328-17.289 25.874-9.726 8.297-19.726 13.812-19.819 13.859a10.68 10.68 0 0 0-5.547 9.359l-.016 25.545c0 5.891 4.773 10.672 10.664 10.672h.008c5.883 0 10.656-4.781 10.664-10.672l.008-19.437c13.031-8.093 42.708-29.374 42.662-55.232-.062-34.372-18.991-53.309-53.31-53.309" fill="#a0d468"/><path d="M472.7 101.875 312.707 48.549a10.68 10.68 0 0 0-9.625 1.453 10.69 10.69 0 0 0-4.421 8.656v383.984c0 3.438 1.64 6.656 4.421 8.656a10.7 10.7 0 0 0 6.25 2.016c1.125 0 2.266-.188 3.375-.547L472.7 399.425c4.344-1.438 7.281-5.516 7.281-10.109V111.999c0-4.593-2.937-8.671-7.281-10.124" fill="#434a54"/><path d="M309.332 48.002h-42.671c-5.891 0-10.671 4.765-10.671 10.656v383.984c0 5.891 4.78 10.672 10.671 10.672h42.671c5.874 0 10.655-4.781 10.655-10.672V58.658c0-5.891-4.781-10.656-10.655-10.656" fill="#aab2bc"/><path d="M363.58 207.996c-11.968 0-21.343 18.733-21.343 42.654s9.375 42.67 21.343 42.67 21.342-18.749 21.342-42.67-9.375-42.654-21.342-42.654" fill="#ffce54"/></svg>